<?xml version="1.0" encoding="UTF-8" standalone="no"?><!DOCTYPE svg PUBLIC "-//W3C//DTD SVG 1.1//EN" "http://www.w3.org/Graphics/SVG/1.1/DTD/svg11.dtd"><svg width="100%" height="100%" viewBox="0 0 246 246" version="1.1" xmlns="http://www.w3.org/2000/svg" xmlns:xlink="http://www.w3.org/1999/xlink" xml:space="preserve" xmlns:serif="http://www.serif.com/" style="fill-rule:evenodd;clip-rule:evenodd;stroke-linecap:round;stroke-linejoin:round;stroke-miterlimit:1.5;"><path d="M158.202,40.975c0,0 -77.168,-34.307 -101.253,41.124c-1.418,4.44 -7.755,-14.038 -7.755,-14.038c0,0 -1.673,-6.242 -8.472,-2.353c-3.604,2.061 -2.435,4.723 -2.368,5.07c1.406,7.279 18.776,24.74 18.776,24.74c0,0 3.114,15.396 8.85,20.04c3.523,2.852 8.604,11.149 13.596,16.169c1.886,1.896 11.448,14.541 14.102,25.307c0.431,1.75 4.248,8.935 14.734,7.624c10.486,-1.311 4.096,-16.876 4.751,-18.35c0.655,-1.475 8.387,2.524 17.203,-0.492c0.413,-0.141 0.613,7.24 1.387,9.67c1.082,3.399 -0.252,12.795 13.031,9.271c8.565,-2.272 8.213,-30.854 29.852,-33.548c4.955,-0.617 13.029,-1.069 20.265,-5.466c3.215,-1.954 3.878,-10.175 3.787,-9.81c-0.164,0.655 1.737,-25.376 -4.424,-28.836c-5.629,-3.162 -7.225,-3.267 -10.65,-21.791c-0.847,-4.579 -2.331,-20.587 10.158,-31.457c2.248,-1.956 -5.947,-0.965 -9.019,-0.816c-13.193,0.637 -26.552,7.941 -26.552,7.941Z" style="fill:none;stroke:#050000;stroke-width:0.1px;"/></svg>